<svg xmlns="http://www.w3.org/2000/svg" viewBox="0 0 512 512">
  <defs>
    <linearGradient id="bg" x1="0" y1="0" x2="1" y2="1">
      <stop offset="0" stop-color="#ff79b2"/>
      <stop offset="1" stop-color="#e82f7d"/>
    </linearGradient>
  </defs>
  <rect width="512" height="512" rx="118" fill="#0b0b0b"/>
  <circle cx="395" cy="108" r="58" fill="url(#bg)" opacity=".95"/>
  <path d="M91 139h137c92 0 154 45 154 119 0 76-62 121-154 121H91V139Zm130 178c52 0 83-21 83-59 0-36-31-57-83-57h-52v116h52Z" fill="#fffafc"/>
  <path d="M357 312c29-19 45-45 48-80 24 17 37 40 37 69 0 48-39 87-87 87-27 0-51-12-67-31 26-6 49-21 69-45Z" fill="#ef4b8f"/>
</svg>
